# xmcd
#
# Track frame offsets:
# 150
# 16607
# 36649
# 57172
# 76902
# 94884
# 114393
# 130749
# 148828
# 165364
# 181564
# 203354
# 222529
# 238537
# 258200
#
# Disc length: 3678 seconds
#
#
# Revision: 0
# Processed by: cddbd v1.5.1PL2 Copyright (c) Steve Scherf et al.
# Submitted via: FreeRIP 2.60 
#
DISCID=be0e5c0f
DTITLE=Corey Hunley - Where I'm Suppossed To Go
DYEAR=2005
DGENRE=Country
TTITLE0=A Long Time
TTITLE1=Carry On
TTITLE2=Silver and Gold
TTITLE3=Millionaire
TTITLE4=Lonely Night
TTITLE5=Picture Perfect World
TTITLE6=Jesse Law
TTITLE7=Victoria's Secret
TTITLE8=Loved and Lost
TTITLE9=Ace in the Hole
TTITLE10=Cursed
TTITLE11=Walking Away
TTITLE12=You
TTITLE13=Heaven (live)
TTITLE14=A.P. (live)
EXTD=
EXTT0=
EXTT1=
EXTT2=
EXTT3=
EXTT4=
EXTT5=
EXTT6=
EXTT7=
EXTT8=
EXTT9=
EXTT10=
EXTT11=
EXTT12=
EXTT13=
EXTT14=
PLAYORDER=
